# Blender v2.79 (sub 0) OBJ File: 'Trebushet Saturday.blend'
# www.blender.org
mtllib trebushet_bottom.mtl
o Cube.010_Cube.013
v 0.980000 2.760000 0.400000
v 0.980000 2.560000 -0.400000
v 0.980000 2.560000 0.400000
v 0.980000 2.760000 -0.400000
v 1.020000 2.560000 -0.400000
v 1.020000 2.760000 -0.400000
v 1.020000 2.560000 0.400000
v 1.020000 2.760000 0.400000
v 0.980000 1.860000 0.640000
v 0.980000 1.660000 -0.640000
v 0.980000 1.660000 0.640000
v 0.980000 1.860000 -0.640000
v 1.020000 1.660000 -0.640000
v 1.020000 1.860000 -0.640000
v 1.020000 1.660000 0.640000
v 1.020000 1.860000 0.640000
v -1.000000 0.140401 1.010703
v -1.000000 3.179599 -0.010703
v -1.000000 0.088637 0.817518
v -0.800000 0.088637 0.817518
v -0.800000 3.179599 -0.010703
v -0.800000 0.140401 1.010703
v -0.800000 3.231363 0.182484
v -1.020000 1.860000 0.640000
v -1.020000 1.660000 -0.640000
v -1.020000 1.660000 0.640000
v -1.020000 1.860000 -0.640000
v -0.980000 1.660000 -0.640000
v -0.980000 1.860000 -0.640000
v -0.980000 1.660000 0.640000
v -0.980000 1.860000 0.640000
v -1.000000 0.100000 2.000000
v -1.000000 0.000000 -2.000000
v -1.000000 -0.000000 2.000000
v -1.000000 0.100000 -2.000000
v 1.000000 0.000000 -2.000000
v 1.000000 0.100000 -2.000000
v 1.000000 -0.000000 2.000000
v 1.000000 0.100000 2.000000
v -1.020000 2.760000 0.400000
v -1.020000 2.560000 -0.400000
v -1.020000 2.560000 0.400000
v -1.020000 2.760000 -0.400000
v -0.980000 2.560000 -0.400000
v -0.980000 2.760000 -0.400000
v -0.980000 2.560000 0.400000
v -0.980000 2.760000 0.400000
v 0.800000 0.140401 1.010703
v 0.800000 3.179599 -0.010703
v 0.800000 0.088637 0.817518
v 1.000000 0.088637 0.817518
v 1.000000 3.179599 -0.010703
v 1.000000 0.140401 1.010703
v 1.000000 3.231363 0.182484
v 0.800000 3.179599 0.010703
v 0.800000 0.140401 -1.010703
v 0.800000 0.088637 -0.817518
v 0.800000 3.231363 -0.182480
v 1.000000 0.140401 -1.010703
v 1.000000 3.179599 0.010703
v 1.000000 0.088637 -0.817518
v 1.000000 3.231363 -0.182480
v -1.000000 3.179599 0.010703
v -1.000000 0.140401 -1.010703
v -1.000000 0.088637 -0.817518
v -1.000000 3.231363 -0.182480
v -0.800000 0.140401 -1.010703
v -0.800000 3.179599 0.010703
v -0.800000 0.088637 -0.817518
v -0.800000 3.231363 -0.182480
v -1.000000 3.231363 0.182484
v 0.800000 3.231363 0.182484
v 1.000000 0.060000 -1.500000
v 0.800000 0.260000 -1.500000
v 1.000000 0.260000 -1.500000
v 0.800000 0.260000 1.500000
v 1.000000 0.060000 1.500000
v 1.000000 0.260000 1.500000
v 0.800000 0.060000 -1.500000
v 0.800000 0.060000 1.500000
v -0.800000 0.060000 -1.500000
v -1.000000 0.260000 -1.500000
v -0.800000 0.260000 -1.500000
v -1.000000 0.260000 1.500000
v -0.800000 0.060000 1.500000
v -0.800000 0.260000 1.500000
v -1.000000 0.060000 -1.500000
v -1.000000 0.060000 1.500000
v 1.000000 3.102022 -0.025027
v -1.000000 3.095123 -0.024520
v 1.000000 3.095123 -0.024520
v -1.000000 3.088554 -0.022348
v 1.000000 3.087777 -0.021932
v -1.000000 3.080873 -0.016266
v 1.000000 3.082322 -0.017678
v -1.000000 3.076903 -0.009567
v 1.000000 3.077652 -0.011446
v -1.000000 3.075060 -0.002899
v 1.000000 3.074973 -0.002022
v -1.000000 3.075480 0.004877
v 1.000000 3.075480 0.004877
v -1.000000 3.076903 0.009567
v 1.000000 3.076903 0.009567
v -1.000000 3.079213 0.013889
v -1.000000 3.083734 0.019127
v 1.000000 3.080873 0.016266
v 1.000000 3.086111 0.020787
v -1.000000 3.090433 0.023097
v 1.000000 3.090433 0.023097
v -1.000000 3.095123 0.024520
v 1.000000 3.095123 0.024520
v -1.000000 3.100000 0.025000
v 1.000000 3.100000 0.025000
v -1.000000 3.104877 0.024520
v 1.000000 3.104877 0.024520
v -1.000000 3.111446 0.022348
v 1.000000 3.112222 0.021932
v -1.000000 3.119127 0.016266
v 1.000000 3.119685 0.015586
v -1.000000 3.123097 0.009567
v 1.000000 3.123097 0.009567
v -1.000000 3.124520 0.004877
v 1.000000 3.124520 0.004877
v -1.000000 3.125026 -0.002022
v 1.000000 3.124940 -0.002899
v -1.000000 3.123097 -0.009567
v 1.000000 3.123097 -0.009567
v -1.000000 3.119685 -0.015586
v 1.000000 3.119126 -0.016266
v -1.000000 3.113889 -0.020787
v 1.000000 3.113889 -0.020787
v -1.000000 3.109567 -0.023097
v 1.000000 3.109567 -0.023097
v -1.000000 3.102899 -0.024940
vn -0.0001 -0.0540 -0.9985
vn 0.0000 -0.3140 -0.9494
vn -0.0001 -0.6207 -0.7840
vn -0.0002 -0.8603 -0.5098
vn 0.0001 -0.9638 -0.2665
vn -0.0001 -0.9985 0.0540
vn 0.0000 -0.9570 0.2902
vn 0.0000 -0.8819 0.4714
vn -0.0001 -0.7570 0.6534
vn -0.0001 -0.5099 0.8603
vn 0.0000 -0.2903 0.9569
vn -0.0000 -0.0980 0.9952
vn 0.0000 0.0980 0.9952
vn 0.0000 0.3140 0.9494
vn -0.0001 0.6207 0.7840
vn -0.0001 0.8603 0.5099
vn 0.0000 0.9569 0.2903
vn 0.0000 0.9973 0.0733
vn -0.0001 0.9688 -0.2477
vn 0.0000 0.8699 -0.4932
vn -0.0001 0.6679 -0.7443
vn 0.0000 0.4714 -0.8819
vn 1.0000 0.0000 0.0000
vn 0.0000 0.2664 -0.9639
vn -1.0000 0.0000 0.0000
vn 0.0000 -0.0733 -0.9973
vn 0.0001 -0.3322 -0.9432
vn -0.0001 -0.6150 -0.7885
vn 0.0002 -0.8002 -0.5997
vn 0.0001 -0.9619 -0.2734
vn 0.0000 -0.9973 0.0733
vn 0.0000 -0.9569 0.2903
vn 0.0001 -0.8603 0.5099
vn 0.0001 -0.6534 0.7570
vn 0.0000 -0.4714 0.8819
vn 0.0001 0.3322 0.9432
vn 0.0001 0.6479 0.7618
vn 0.0000 0.8699 0.4932
vn 0.0000 0.9570 0.2902
vn 0.0001 0.9985 0.0540
vn 0.0000 0.9638 -0.2665
vn 0.0001 0.8603 -0.5099
vn 0.0000 0.6534 -0.7570
vn 1.0000 -0.0001 0.0000
vn 0.0001 0.2478 -0.9688
vn -1.0000 0.0001 0.0000
vn -1.0000 -0.0001 0.0000
vn 0.0000 0.0000 -1.0000
vn 0.0000 0.0000 1.0000
vn 0.0000 -1.0000 -0.0000
vn 0.0000 1.0000 0.0000
vn 0.0000 -0.2588 -0.9659
vn 0.0000 0.2588 0.9659
vn 0.0000 -0.9659 0.2588
vn 0.0000 0.9659 -0.2588
vn 0.0000 0.2588 -0.9659
vn 0.0000 -0.2588 0.9659
vn 0.0000 -0.9659 -0.2588
vn 0.0000 0.9659 0.2588
usemtl Material.003
s off
f 89//1 90//1 134//1
f 91//2 92//2 90//2
f 93//3 94//3 92//3
f 97//4 96//4 94//4
f 97//5 98//5 96//5
f 99//6 100//6 98//6
f 101//7 102//7 100//7
f 103//8 104//8 102//8
f 106//9 105//9 104//9
f 107//10 108//10 105//10
f 109//11 110//11 108//11
f 111//12 112//12 110//12
f 113//13 114//13 112//13
f 115//14 116//14 114//14
f 117//15 118//15 116//15
f 119//16 120//16 118//16
f 121//17 122//17 120//17
f 123//18 124//18 122//18
f 125//19 126//19 124//19
f 127//20 128//20 126//20
f 129//21 130//21 128//21
f 131//22 132//22 130//22
f 117//23 103//23 127//23
f 133//24 134//24 132//24
f 110//25 122//25 98//25
f 89//26 91//26 90//26
f 91//27 93//27 92//27
f 93//28 95//28 94//28
f 95//29 97//29 94//29
f 97//30 99//30 98//30
f 99//31 101//31 100//31
f 101//32 103//32 102//32
f 103//33 106//33 104//33
f 106//34 107//34 105//34
f 107//35 109//35 108//35
f 109//11 111//11 110//11
f 111//12 113//12 112//12
f 113//13 115//13 114//13
f 115//36 117//36 116//36
f 117//37 119//37 118//37
f 119//38 121//38 120//38
f 121//39 123//39 122//39
f 123//40 125//40 124//40
f 125//41 127//41 126//41
f 127//42 129//42 128//42
f 129//43 131//43 130//43
f 131//22 133//22 132//22
f 93//23 91//23 89//23
f 133//23 131//23 129//23
f 125//44 123//44 127//44
f 121//23 119//23 117//23
f 117//23 115//23 113//23
f 113//23 111//23 109//23
f 109//23 107//23 106//23
f 103//23 101//23 99//23
f 93//23 89//23 133//23
f 133//23 129//23 93//23
f 127//23 123//23 121//23
f 117//23 113//23 103//23
f 109//23 106//23 103//23
f 103//23 99//23 97//23
f 97//23 95//23 103//23
f 93//23 129//23 127//23
f 127//23 121//23 117//23
f 113//23 109//23 103//23
f 103//23 95//23 93//23
f 93//23 127//23 103//23
f 133//45 89//45 134//45
f 94//25 96//25 92//25
f 100//25 102//25 98//25
f 104//25 105//25 110//25
f 105//25 108//25 110//25
f 110//25 112//25 114//25
f 118//46 120//46 122//46
f 124//47 126//47 128//47
f 130//25 132//25 134//25
f 134//25 90//25 98//25
f 92//25 96//25 98//25
f 98//46 102//46 104//46
f 110//25 114//25 122//25
f 116//25 118//25 122//25
f 122//25 124//25 134//25
f 128//25 130//25 134//25
f 90//25 92//25 98//25
f 98//25 104//25 110//25
f 114//25 116//25 122//25
f 124//25 128//25 134//25
f 134//25 98//25 122//25
s 1
f 81//48 82//48 83//48
f 84//49 85//49 86//49
f 86//23 81//23 83//23
f 85//50 87//50 81//50
f 88//25 82//25 87//25
f 83//51 84//51 86//51
f 81//48 87//48 82//48
f 84//49 88//49 85//49
f 86//23 85//23 81//23
f 85//50 88//50 87//50
f 88//25 84//25 82//25
f 83//51 82//51 84//51
usemtl Material.001
f 73//48 74//48 75//48
f 76//49 77//49 78//49
f 78//23 73//23 75//23
f 77//50 79//50 73//50
f 80//25 74//25 79//25
f 75//51 76//51 78//51
f 73//48 79//48 74//48
f 76//49 80//49 77//49
f 78//23 77//23 73//23
f 77//50 80//50 79//50
f 80//25 76//25 74//25
f 75//51 74//51 76//51
usemtl None
f 1//25 2//25 3//25
f 4//48 5//48 2//48
f 6//23 7//23 5//23
f 8//49 3//49 7//49
f 5//50 3//50 2//50
f 4//51 8//51 6//51
f 9//25 10//25 11//25
f 12//48 13//48 10//48
f 14//23 15//23 13//23
f 16//49 11//49 15//49
f 13//50 11//50 10//50
f 12//51 16//51 14//51
f 17//25 18//25 19//25
f 18//52 20//52 19//52
f 21//23 22//23 20//23
f 23//53 17//53 22//53
f 20//54 17//54 19//54
f 18//55 23//55 21//55
f 24//25 25//25 26//25
f 27//48 28//48 25//48
f 29//23 30//23 28//23
f 31//49 26//49 30//49
f 28//50 26//50 25//50
f 27//51 31//51 29//51
f 32//25 33//25 34//25
f 35//48 36//48 33//48
f 37//23 38//23 36//23
f 39//49 34//49 38//49
f 36//50 34//50 33//50
f 35//51 39//51 37//51
f 40//25 41//25 42//25
f 43//48 44//48 41//48
f 45//23 46//23 44//23
f 47//49 42//49 46//49
f 44//50 42//50 41//50
f 43//51 47//51 45//51
f 48//25 49//25 50//25
f 49//52 51//52 50//52
f 52//23 53//23 51//23
f 54//53 48//53 53//53
f 51//54 48//54 50//54
f 49//55 54//55 52//55
f 55//25 56//25 57//25
f 58//56 59//56 56//56
f 59//23 60//23 61//23
f 60//57 57//57 61//57
f 59//58 57//58 56//58
f 58//59 60//59 62//59
f 63//25 64//25 65//25
f 66//56 67//56 64//56
f 67//23 68//23 69//23
f 68//57 65//57 69//57
f 67//58 65//58 64//58
f 66//59 68//59 70//59
f 1//25 4//25 2//25
f 4//48 6//48 5//48
f 6//23 8//23 7//23
f 8//49 1//49 3//49
f 5//50 7//50 3//50
f 4//51 1//51 8//51
f 9//25 12//25 10//25
f 12//48 14//48 13//48
f 14//23 16//23 15//23
f 16//49 9//49 11//49
f 13//50 15//50 11//50
f 12//51 9//51 16//51
f 17//25 71//25 18//25
f 18//52 21//52 20//52
f 21//23 23//23 22//23
f 23//53 71//53 17//53
f 20//54 22//54 17//54
f 18//55 71//55 23//55
f 24//25 27//25 25//25
f 27//48 29//48 28//48
f 29//23 31//23 30//23
f 31//49 24//49 26//49
f 28//50 30//50 26//50
f 27//51 24//51 31//51
f 32//25 35//25 33//25
f 35//48 37//48 36//48
f 37//23 39//23 38//23
f 39//49 32//49 34//49
f 36//50 38//50 34//50
f 35//51 32//51 39//51
f 40//25 43//25 41//25
f 43//48 45//48 44//48
f 45//23 47//23 46//23
f 47//49 40//49 42//49
f 44//50 46//50 42//50
f 43//51 40//51 47//51
f 48//25 72//25 49//25
f 49//52 52//52 51//52
f 52//23 54//23 53//23
f 54//53 72//53 48//53
f 51//54 53//54 48//54
f 49//55 72//55 54//55
f 55//25 58//25 56//25
f 58//56 62//56 59//56
f 59//23 62//23 60//23
f 60//57 55//57 57//57
f 59//58 61//58 57//58
f 58//59 55//59 60//59
f 63//25 66//25 64//25
f 66//56 70//56 67//56
f 67//23 70//23 68//23
f 68//57 63//57 65//57
f 67//58 69//58 65//58
f 66//59 63//59 68//59
